<svg id="svg" version="1.1" xmlns="http://www.w3.org/2000/svg" xmlns:xlink="http://www.w3.org/1999/xlink" width="400" height="340.15748031496065" viewBox="0, 0, 400,340.15748031496065"><g id="svgg"><path id="path0" d="M18.638 0.246 C 17.936 0.321,17.362 0.525,17.362 0.701 C 17.362 0.877,16.979 1.021,16.511 1.021 C 16.043 1.021,15.660 1.174,15.660 1.362 C 15.660 1.549,15.353 1.702,14.979 1.702 C 14.604 1.702,14.298 1.838,14.298 2.005 C 14.298 2.171,13.783 2.404,13.153 2.522 C 12.524 2.640,11.734 3.040,11.398 3.411 C 11.063 3.782,10.655 4.085,10.491 4.085 C 9.844 4.085,4.085 10.215,4.085 10.905 C 4.085 11.295,3.932 11.520,3.745 11.404 C 3.557 11.289,3.404 11.367,3.404 11.579 C 3.404 11.790,3.174 12.193,2.894 12.474 C 2.613 12.755,2.383 13.433,2.383 13.982 C 2.383 14.530,2.230 14.979,2.043 14.979 C 1.855 14.979,1.702 15.209,1.702 15.489 C 1.702 15.770,1.549 16.000,1.362 16.000 C 1.174 16.000,1.021 16.447,1.021 16.993 C 1.021 17.539,0.830 18.050,0.596 18.128 C -0.030 18.336,-0.030 319.084,0.596 319.711 C 0.830 319.945,1.021 320.489,1.021 320.919 C 1.021 321.350,1.174 321.702,1.362 321.702 C 1.549 321.702,1.702 322.009,1.702 322.383 C 1.702 322.757,1.855 323.064,2.043 323.064 C 2.230 323.064,2.383 323.528,2.383 324.096 C 2.383 324.699,2.595 325.209,2.894 325.324 C 3.174 325.431,3.404 325.826,3.404 326.201 C 3.404 326.641,3.571 326.817,3.876 326.700 C 4.207 326.573,4.297 326.714,4.178 327.172 C 4.062 327.616,4.373 328.151,5.153 328.847 C 5.782 329.410,6.451 330.032,6.638 330.229 C 9.398 333.141,10.377 333.967,10.850 333.786 C 11.143 333.673,11.281 333.684,11.155 333.810 C 10.839 334.126,11.748 334.979,12.401 334.979 C 12.695 334.979,12.936 335.132,12.936 335.319 C 12.936 335.506,13.243 335.660,13.617 335.660 C 13.991 335.660,14.298 335.813,14.298 336.000 C 14.298 336.187,14.604 336.340,14.979 336.340 C 15.353 336.340,15.660 336.494,15.660 336.681 C 15.660 336.868,16.043 337.021,16.511 337.021 C 16.979 337.021,17.362 337.174,17.362 337.362 C 17.362 337.549,17.965 337.702,18.703 337.702 C 19.441 337.702,20.140 337.855,20.255 338.043 C 20.547 338.515,317.836 338.515,318.128 338.043 C 318.243 337.855,318.856 337.702,319.489 337.702 C 320.123 337.702,320.735 337.549,320.851 337.362 C 320.967 337.174,321.435 337.021,321.892 337.021 C 322.349 337.021,322.723 336.868,322.723 336.681 C 322.723 336.494,323.030 336.340,323.404 336.340 C 323.779 336.340,324.085 336.187,324.085 336.000 C 324.085 335.813,324.391 335.660,324.766 335.660 C 325.140 335.660,325.447 335.506,325.447 335.319 C 325.447 335.132,325.677 334.979,325.957 334.979 C 326.238 334.979,326.468 334.841,326.468 334.672 C 326.468 334.503,326.908 334.211,327.445 334.024 C 327.982 333.837,328.939 333.135,329.572 332.465 C 330.923 331.035,332.072 329.872,333.341 328.653 C 333.844 328.169,334.363 327.288,334.493 326.695 C 334.623 326.102,335.016 325.417,335.365 325.172 C 335.714 324.928,336.000 324.353,336.000 323.896 C 336.000 323.438,336.153 323.064,336.340 323.064 C 336.528 323.064,336.681 322.757,336.681 322.383 C 336.681 322.009,336.834 321.702,337.021 321.702 C 337.209 321.702,337.362 321.328,337.362 320.871 C 337.362 320.414,337.515 319.946,337.702 319.830 C 337.889 319.714,338.043 318.872,338.043 317.957 C 338.043 317.043,338.196 316.201,338.383 316.085 C 338.885 315.775,338.852 22.393,338.350 21.890 C 338.145 21.685,337.983 20.735,337.990 19.780 C 337.998 18.824,337.859 18.043,337.683 18.043 C 337.506 18.043,337.362 17.583,337.362 17.021 C 337.362 16.460,337.209 16.000,337.021 16.000 C 336.834 16.000,336.681 15.617,336.681 15.149 C 336.681 14.681,336.528 14.298,336.340 14.298 C 336.153 14.298,336.000 14.025,336.000 13.692 C 336.000 13.359,335.699 12.870,335.332 12.605 C 334.964 12.340,334.570 11.696,334.455 11.175 C 334.227 10.138,328.502 4.085,327.749 4.085 C 327.502 4.085,327.079 3.779,326.810 3.406 C 326.540 3.032,325.817 2.632,325.203 2.517 C 324.588 2.402,324.085 2.171,324.085 2.005 C 324.085 1.838,323.779 1.702,323.404 1.702 C 323.030 1.702,322.723 1.549,322.723 1.362 C 322.723 1.174,322.353 1.021,321.901 1.021 C 321.448 1.021,321.014 0.830,320.936 0.596 C 320.802 0.193,22.403 -0.152,18.638 0.246 M80.957 47.979 C 81.024 48.178,81.592 48.340,82.221 48.340 C 82.850 48.340,83.448 48.476,83.550 48.642 C 83.653 48.807,84.428 49.046,85.272 49.173 C 86.117 49.300,86.809 49.519,86.809 49.659 C 86.809 49.800,87.345 50.126,88.000 50.383 C 88.655 50.640,89.191 50.975,89.191 51.127 C 89.191 51.280,89.464 51.404,89.797 51.404 C 90.130 51.404,90.624 51.711,90.894 52.085 C 91.164 52.460,91.574 52.766,91.805 52.766 C 92.414 52.766,98.723 59.125,98.723 59.739 C 98.723 60.023,98.874 60.255,99.057 60.255 C 99.241 60.255,99.487 60.638,99.605 61.106 C 99.722 61.574,99.955 61.957,100.122 61.957 C 100.289 61.957,100.426 62.264,100.426 62.638 C 100.426 63.013,100.579 63.319,100.766 63.319 C 100.953 63.319,101.106 63.626,101.106 64.000 C 101.106 64.374,101.260 64.681,101.447 64.681 C 101.634 64.681,101.787 64.987,101.787 65.362 C 101.787 65.736,101.940 66.043,102.128 66.043 C 102.315 66.043,102.468 66.426,102.468 66.894 C 102.468 67.362,102.621 67.745,102.809 67.745 C 102.996 67.745,103.149 68.281,103.149 68.936 C 103.149 69.591,103.302 70.128,103.489 70.128 C 103.702 70.128,103.830 72.170,103.830 75.574 C 103.830 78.979,103.702 81.021,103.489 81.021 C 103.302 81.021,103.149 81.557,103.149 82.213 C 103.149 82.868,102.996 83.404,102.809 83.404 C 102.621 83.404,102.468 83.864,102.468 84.426 C 102.468 84.987,102.315 85.447,102.128 85.447 C 101.940 85.447,101.787 85.753,101.787 86.128 C 101.787 86.502,101.634 86.809,101.447 86.809 C 101.260 86.809,101.106 87.115,101.106 87.489 C 101.106 87.864,100.987 88.170,100.841 88.170 C 100.445 88.170,99.733 90.254,99.980 90.688 C 100.098 90.895,100.075 90.956,99.929 90.825 C 99.666 90.588,98.723 91.315,98.723 91.754 C 98.723 91.879,98.264 92.411,97.702 92.936 C 97.140 93.461,96.681 94.060,96.681 94.267 C 96.681 94.750,94.846 96.681,94.387 96.681 C 94.196 96.681,93.408 97.294,92.636 98.043 C 91.865 98.791,91.080 99.404,90.893 99.404 C 90.706 99.404,90.553 99.557,90.553 99.745 C 90.553 99.932,90.258 100.085,89.897 100.085 C 89.536 100.085,89.010 100.315,88.729 100.596 C 88.449 100.877,87.902 101.106,87.514 101.106 C 87.126 101.106,86.809 101.260,86.809 101.447 C 86.809 101.634,86.502 101.787,86.128 101.787 C 85.753 101.787,85.447 101.940,85.447 102.128 C 85.447 102.315,84.987 102.468,84.426 102.468 C 83.815 102.468,83.404 102.646,83.404 102.910 C 83.404 103.215,83.034 103.309,82.213 103.214 C 81.483 103.128,81.021 103.221,81.021 103.452 C 81.021 103.690,80.202 103.830,78.809 103.830 C 77.560 103.830,76.596 103.978,76.596 104.170 C 76.596 104.357,75.983 104.511,75.234 104.511 C 74.485 104.511,73.872 104.357,73.872 104.170 C 73.872 103.978,72.908 103.830,71.660 103.830 C 70.411 103.830,69.447 103.681,69.447 103.489 C 69.447 103.302,69.064 103.149,68.596 103.149 C 68.128 103.149,67.745 102.996,67.745 102.809 C 67.745 102.621,67.285 102.468,66.723 102.468 C 66.162 102.468,65.702 102.315,65.702 102.128 C 65.702 101.940,65.319 101.787,64.851 101.787 C 64.383 101.787,64.000 101.634,64.000 101.447 C 64.000 101.260,63.759 101.106,63.465 101.106 C 63.171 101.106,62.688 100.865,62.393 100.569 C 62.098 100.274,61.572 100.106,61.225 100.197 C 60.879 100.288,60.681 100.222,60.787 100.051 C 60.893 99.880,60.702 99.635,60.362 99.508 C 60.022 99.380,59.339 98.845,58.842 98.319 C 58.346 97.792,57.777 97.362,57.579 97.362 C 57.083 97.362,53.787 94.079,53.787 93.584 C 53.787 93.364,53.404 92.830,52.936 92.396 C 52.468 91.962,52.085 91.370,52.085 91.080 C 52.085 90.790,51.932 90.553,51.745 90.553 C 51.557 90.553,51.404 90.352,51.404 90.107 C 51.404 89.861,51.098 89.331,50.723 88.929 C 50.349 88.528,50.043 88.039,50.043 87.844 C 50.043 87.649,49.889 87.489,49.702 87.489 C 49.515 87.489,49.362 87.030,49.362 86.468 C 49.362 85.906,49.220 85.447,49.046 85.447 C 48.872 85.447,48.625 84.604,48.496 83.574 C 48.367 82.545,48.126 81.702,47.961 81.702 C 47.795 81.702,47.660 80.639,47.660 79.339 C 47.660 78.040,47.506 76.882,47.319 76.766 C 47.132 76.650,46.979 76.105,46.979 75.554 C 46.979 75.004,47.132 74.553,47.319 74.553 C 47.511 74.553,47.660 73.595,47.660 72.361 C 47.660 71.155,47.791 70.086,47.952 69.987 C 48.114 69.887,48.345 69.080,48.466 68.193 C 48.705 66.452,49.370 64.681,49.785 64.681 C 49.927 64.681,50.043 64.374,50.043 64.000 C 50.043 63.626,50.196 63.319,50.383 63.319 C 50.570 63.319,50.723 63.013,50.723 62.638 C 50.723 62.264,50.893 61.957,51.100 61.957 C 51.308 61.957,51.389 61.728,51.281 61.447 C 51.167 61.149,51.276 60.936,51.544 60.936 C 51.796 60.936,52.201 60.457,52.444 59.871 C 52.687 59.285,53.241 58.449,53.677 58.014 C 54.112 57.579,54.468 57.134,54.468 57.025 C 54.468 56.768,56.768 54.468,57.025 54.468 C 57.134 54.468,57.605 54.085,58.074 53.617 C 58.542 53.149,59.124 52.766,59.367 52.766 C 59.610 52.766,60.087 52.460,60.426 52.085 C 60.764 51.711,61.248 51.404,61.500 51.404 C 61.751 51.404,61.957 51.251,61.957 51.064 C 61.957 50.877,62.264 50.723,62.638 50.723 C 63.013 50.723,63.319 50.606,63.319 50.463 C 63.319 50.113,65.882 49.021,66.706 49.021 C 67.068 49.021,67.459 48.868,67.574 48.681 C 67.690 48.494,68.312 48.340,68.956 48.340 C 69.601 48.340,70.128 48.192,70.128 48.010 C 70.128 47.388,80.750 47.357,80.957 47.979 M234.213 123.607 C 234.213 123.776,235.591 123.915,237.277 123.915 C 239.092 123.915,240.340 124.054,240.340 124.255 C 240.340 124.443,241.174 124.596,242.193 124.596 C 243.211 124.596,244.130 124.733,244.233 124.901 C 244.337 125.068,245.648 125.314,247.147 125.447 C 248.646 125.579,249.872 125.825,249.872 125.993 C 249.872 126.161,250.255 126.298,250.723 126.298 C 251.191 126.298,251.574 126.451,251.574 126.638 C 251.574 126.826,252.034 126.979,252.596 126.979 C 253.157 126.979,253.617 127.132,253.617 127.319 C 253.617 127.506,254.000 127.660,254.468 127.660 C 254.936 127.660,255.319 127.831,255.319 128.040 C 255.319 128.258,255.669 128.353,256.139 128.263 C 256.762 128.144,256.912 128.229,256.764 128.614 C 256.613 129.007,256.771 129.083,257.459 128.952 C 257.967 128.855,258.320 128.931,258.281 129.129 C 258.244 129.320,258.711 129.625,259.319 129.808 C 259.928 129.991,260.426 130.272,260.426 130.432 C 260.426 130.592,260.698 130.723,261.031 130.723 C 261.364 130.723,261.858 131.030,262.128 131.404 C 262.398 131.779,262.854 132.085,263.142 132.085 C 263.430 132.085,263.857 132.391,264.091 132.766 C 264.325 133.140,264.679 133.447,264.878 133.447 C 265.077 133.447,265.454 133.638,265.715 133.872 C 266.730 134.783,267.213 135.149,267.399 135.149 C 267.505 135.149,268.262 135.800,269.080 136.596 C 269.898 137.391,270.869 138.272,271.237 138.553 C 271.605 138.834,272.180 139.600,272.514 140.255 C 273.129 141.461,274.247 142.638,274.775 142.638 C 274.934 142.638,275.064 142.888,275.064 143.194 C 275.064 143.500,275.350 143.998,275.699 144.301 C 276.048 144.604,276.437 145.320,276.563 145.892 C 276.688 146.464,277.092 147.148,277.459 147.413 C 277.827 147.678,278.128 148.168,278.128 148.501 C 278.128 148.834,278.281 149.106,278.468 149.106 C 278.655 149.106,278.809 149.413,278.809 149.787 C 278.809 150.162,278.962 150.468,279.149 150.468 C 279.336 150.468,279.489 150.698,279.489 150.979 C 279.489 151.260,279.643 151.489,279.830 151.489 C 280.017 151.489,280.171 151.911,280.172 152.426 C 280.173 152.940,280.403 153.800,280.683 154.337 C 280.963 154.873,281.191 155.601,281.191 155.954 C 281.191 156.307,281.345 156.596,281.532 156.596 C 281.719 156.596,281.872 157.055,281.872 157.617 C 281.872 158.179,282.026 158.638,282.213 158.638 C 282.400 158.638,282.553 159.021,282.553 159.489 C 282.553 159.957,282.706 160.340,282.894 160.340 C 283.081 160.340,283.234 160.868,283.234 161.512 C 283.234 162.156,283.387 162.778,283.574 162.894 C 283.762 163.009,283.915 163.631,283.915 164.275 C 283.915 164.920,284.057 165.447,284.230 165.447 C 284.403 165.447,284.653 166.829,284.785 168.518 C 284.917 170.207,285.158 171.672,285.321 171.772 C 285.484 171.873,285.617 172.856,285.617 173.957 C 285.617 175.059,285.770 176.054,285.957 176.170 C 286.145 176.286,286.298 177.750,286.298 179.424 C 286.298 181.227,286.437 182.468,286.638 182.468 C 286.855 182.468,286.979 185.305,286.979 190.298 C 286.979 195.291,287.102 198.128,287.319 198.128 C 287.541 198.128,287.660 203.631,287.660 213.957 C 287.660 224.284,287.541 229.787,287.319 229.787 C 287.095 229.787,286.979 239.603,286.979 258.553 L 286.979 287.319 262.646 287.319 L 238.314 287.319 238.183 239.915 C 238.031 184.846,238.083 189.617,237.633 189.617 C 237.432 189.617,237.277 188.873,237.277 187.915 C 237.277 186.979,237.123 186.213,236.936 186.213 C 236.749 186.213,236.596 185.677,236.596 185.021 C 236.596 184.366,236.443 183.830,236.255 183.830 C 236.068 183.830,235.915 183.370,235.915 182.809 C 235.915 182.247,235.762 181.787,235.574 181.787 C 235.387 181.787,235.234 181.404,235.234 180.936 C 235.234 180.468,235.081 180.085,234.894 180.085 C 234.706 180.085,234.553 179.779,234.553 179.404 C 234.553 179.030,234.417 178.723,234.251 178.723 C 234.084 178.723,233.854 178.221,233.738 177.606 C 233.623 176.991,233.223 176.268,232.850 175.999 C 232.476 175.730,232.170 175.298,232.170 175.040 C 232.170 174.782,231.672 174.127,231.064 173.584 C 230.455 173.042,229.804 172.437,229.617 172.241 C 227.875 170.416,227.237 169.872,226.843 169.872 C 226.590 169.872,226.383 169.755,226.383 169.612 C 226.383 169.296,223.856 168.170,223.147 168.170 C 222.867 168.170,222.638 168.017,222.638 167.830 C 222.638 167.643,222.179 167.489,221.617 167.489 C 221.055 167.489,220.596 167.336,220.596 167.149 C 220.596 166.962,219.906 166.809,219.064 166.809 C 218.221 166.809,217.532 166.655,217.532 166.468 C 217.532 166.255,215.383 166.128,211.765 166.128 C 208.287 166.128,205.914 166.263,205.787 166.468 C 205.672 166.655,204.897 166.809,204.065 166.809 C 203.234 166.809,202.553 166.962,202.553 167.149 C 202.553 167.336,202.017 167.489,201.362 167.489 C 200.706 167.489,200.170 167.643,200.170 167.830 C 200.170 168.017,199.797 168.170,199.341 168.170 C 198.193 168.170,196.685 168.785,196.916 169.159 C 197.021 169.329,196.801 169.388,196.426 169.290 C 196.045 169.191,195.745 169.280,195.745 169.492 C 195.745 169.701,195.538 169.872,195.285 169.872 C 195.031 169.872,194.343 170.332,193.756 170.894 C 193.168 171.455,192.603 171.915,192.499 171.915 C 191.931 171.915,188.596 175.295,188.596 175.871 C 188.596 176.129,188.453 176.340,188.278 176.340 C 188.104 176.340,187.852 176.685,187.719 177.106 C 187.586 177.528,187.193 178.120,186.845 178.423 C 186.497 178.726,186.213 179.224,186.213 179.529 C 186.213 179.835,186.060 180.085,185.872 180.085 C 185.685 180.085,185.532 180.468,185.532 180.936 C 185.532 181.404,185.379 181.787,185.191 181.787 C 185.004 181.787,184.851 182.094,184.851 182.468 C 184.851 182.843,184.710 183.149,184.538 183.149 C 184.365 183.149,184.118 184.145,183.987 185.362 C 183.857 186.579,183.615 187.574,183.450 187.574 C 183.284 187.574,183.149 188.111,183.149 188.766 C 183.149 189.421,182.996 189.957,182.809 189.957 C 182.619 189.957,182.468 190.865,182.468 192.000 C 182.468 193.135,182.317 194.043,182.128 194.043 C 181.923 194.043,181.787 195.404,181.787 197.447 C 181.787 199.489,181.651 200.851,181.447 200.851 C 181.222 200.851,181.106 215.489,181.106 244.085 L 181.106 287.319 156.936 287.319 L 132.766 287.319 132.766 207.489 L 132.766 127.660 156.085 127.660 L 179.404 127.660 179.404 138.383 L 179.404 149.106 180.596 149.106 C 181.560 149.106,181.787 148.977,181.787 148.426 C 181.787 148.051,181.916 147.745,182.074 147.745 C 182.232 147.745,182.650 147.209,183.003 146.553 C 183.355 145.898,183.763 145.362,183.907 145.362 C 184.052 145.362,184.170 145.120,184.170 144.824 C 184.170 144.529,184.783 143.698,185.532 142.979 C 186.281 142.259,186.894 141.509,186.894 141.312 C 186.894 140.871,191.375 136.511,191.829 136.511 C 191.936 136.511,192.559 135.974,193.214 135.319 C 193.870 134.664,194.531 134.128,194.684 134.128 C 194.837 134.128,195.444 133.668,196.032 133.106 C 196.619 132.545,197.298 132.085,197.539 132.085 C 197.780 132.085,198.198 131.779,198.468 131.404 C 198.738 131.030,199.155 130.723,199.394 130.723 C 199.634 130.723,199.830 130.570,199.830 130.383 C 199.830 130.196,200.054 130.043,200.329 130.043 C 200.944 130.043,203.362 128.946,203.518 128.596 C 203.580 128.455,203.925 128.340,204.284 128.340 C 204.643 128.340,204.936 128.187,204.936 128.000 C 204.936 127.813,205.243 127.660,205.617 127.660 C 205.991 127.660,206.298 127.506,206.298 127.319 C 206.298 127.132,206.681 126.979,207.149 126.979 C 207.617 126.979,208.000 126.826,208.000 126.638 C 208.000 126.451,208.306 126.298,208.681 126.298 C 209.055 126.298,209.362 126.167,209.362 126.006 C 209.362 125.845,210.319 125.614,211.489 125.492 C 212.660 125.370,213.668 125.118,213.730 124.933 C 213.793 124.747,214.508 124.596,215.319 124.596 C 216.130 124.596,216.851 124.426,216.920 124.218 C 216.996 123.990,217.889 123.852,219.161 123.869 C 220.325 123.886,221.277 123.754,221.277 123.576 C 221.277 123.392,223.342 123.212,226.083 123.158 C 231.746 123.047,234.213 123.183,234.213 123.607 M99.745 207.489 L 99.745 287.319 75.574 287.319 L 51.404 287.319 51.404 207.489 L 51.404 127.660 75.574 127.660 L 99.745 127.660 99.745 207.489 M371.404 293.787 C 371.404 293.974,370.868 294.128,370.213 294.128 C 369.557 294.128,369.021 294.281,369.021 294.468 C 369.021 294.655,368.562 294.809,368.000 294.809 C 367.438 294.809,366.979 294.962,366.979 295.149 C 366.979 295.336,366.672 295.489,366.298 295.489 C 365.923 295.489,365.616 295.604,365.616 295.745 C 365.615 295.885,364.926 296.283,364.084 296.629 C 363.242 296.976,362.553 297.397,362.553 297.566 C 362.553 297.734,362.352 297.872,362.107 297.872 C 361.862 297.872,361.026 298.523,360.250 299.319 C 359.474 300.115,358.526 301.061,358.143 301.421 C 357.760 301.782,357.447 302.280,357.447 302.528 C 357.447 302.776,357.304 302.979,357.129 302.979 C 356.955 302.979,356.706 303.312,356.577 303.719 C 356.448 304.125,356.055 304.767,355.703 305.144 C 355.351 305.522,355.064 306.185,355.064 306.617 C 355.064 307.050,354.911 307.404,354.723 307.404 C 354.536 307.404,354.383 307.711,354.383 308.085 C 354.383 308.460,354.212 308.766,354.003 308.766 C 353.793 308.766,353.701 309.065,353.797 309.434 C 353.894 309.802,353.758 310.280,353.497 310.497 C 353.214 310.732,353.021 311.536,353.021 312.484 C 353.021 313.360,352.855 314.243,352.651 314.446 C 352.106 314.992,352.802 323.064,353.395 323.064 C 353.564 323.064,353.702 323.600,353.702 324.255 C 353.702 324.911,353.855 325.447,354.043 325.447 C 354.230 325.447,354.383 325.753,354.383 326.128 C 354.383 326.502,354.536 326.809,354.723 326.809 C 354.911 326.809,355.064 327.115,355.064 327.489 C 355.064 327.864,355.217 328.170,355.404 328.170 C 355.591 328.170,355.745 328.477,355.745 328.851 C 355.745 329.226,355.898 329.532,356.085 329.532 C 356.272 329.532,356.426 329.755,356.426 330.027 C 356.426 330.299,356.809 330.905,357.277 331.373 C 357.745 331.841,358.128 332.347,358.128 332.498 C 358.128 332.796,360.414 334.979,360.726 334.979 C 360.832 334.979,361.348 335.438,361.872 336.000 C 362.397 336.562,363.071 337.021,363.371 337.021 C 363.670 337.021,363.915 337.141,363.915 337.288 C 363.915 337.751,365.854 338.723,366.776 338.723 C 367.262 338.723,367.660 338.877,367.660 339.064 C 367.660 339.251,368.030 339.404,368.482 339.404 C 368.935 339.404,369.369 339.596,369.447 339.830 C 369.554 340.151,371.241 340.255,376.340 340.255 C 381.439 340.255,383.127 340.151,383.234 339.830 C 383.312 339.596,383.823 339.404,384.369 339.404 C 384.915 339.404,385.362 339.258,385.362 339.079 C 385.362 338.901,385.898 338.654,386.553 338.531 C 387.209 338.408,387.745 338.171,387.745 338.005 C 387.745 337.838,388.051 337.702,388.426 337.702 C 388.800 337.702,389.106 337.549,389.106 337.362 C 389.106 337.174,389.272 337.021,389.473 337.021 C 389.675 337.021,390.403 336.438,391.091 335.726 C 391.778 335.013,392.612 334.327,392.944 334.202 C 393.276 334.076,393.649 333.701,393.774 333.369 C 393.899 333.038,394.431 332.360,394.958 331.863 C 395.484 331.367,395.915 330.753,395.915 330.498 C 395.915 330.244,396.221 329.845,396.596 329.611 C 396.970 329.377,397.277 328.957,397.277 328.678 C 397.277 328.399,397.448 328.170,397.657 328.170 C 397.877 328.170,397.969 327.817,397.876 327.329 C 397.788 326.867,397.846 326.570,398.007 326.669 C 398.167 326.768,398.298 326.457,398.298 325.978 C 398.298 325.498,398.451 325.106,398.638 325.106 C 398.826 325.106,398.979 324.660,398.979 324.113 C 398.979 323.567,399.153 323.062,399.366 322.991 C 399.636 322.901,399.754 321.109,399.754 317.106 C 399.754 313.104,399.636 311.311,399.366 311.221 C 399.153 311.150,398.979 310.569,398.979 309.929 C 398.979 309.289,398.839 308.766,398.668 308.766 C 398.497 308.766,398.254 308.153,398.128 307.404 C 398.001 306.655,397.795 306.043,397.670 306.043 C 397.545 306.043,397.225 305.545,396.960 304.936 C 396.694 304.328,396.197 303.582,395.856 303.279 C 395.514 302.976,395.234 302.575,395.234 302.387 C 395.234 301.927,391.945 298.553,391.497 298.553 C 391.302 298.553,390.651 298.083,390.049 297.508 C 389.448 296.934,388.530 296.378,388.010 296.274 C 387.490 296.170,387.064 295.951,387.064 295.787 C 387.064 295.623,386.757 295.489,386.383 295.489 C 386.009 295.489,385.702 295.336,385.702 295.149 C 385.702 294.962,385.319 294.809,384.851 294.809 C 384.383 294.809,384.000 294.655,384.000 294.468 C 384.000 294.281,383.387 294.128,382.638 294.128 C 381.889 294.128,381.277 293.974,381.277 293.787 C 381.277 293.576,379.404 293.447,376.340 293.447 C 373.277 293.447,371.404 293.576,371.404 293.787 M379.574 297.532 C 379.574 297.719,380.111 297.872,380.766 297.872 C 381.421 297.872,381.957 298.026,381.957 298.213 C 381.957 298.400,382.417 298.553,382.979 298.553 C 383.540 298.553,384.000 298.706,384.000 298.894 C 384.000 299.081,384.306 299.234,384.681 299.234 C 385.055 299.234,385.362 299.387,385.362 299.574 C 385.362 299.762,385.585 299.915,385.857 299.915 C 386.129 299.915,386.735 300.298,387.203 300.766 C 387.671 301.234,388.257 301.617,388.505 301.617 C 388.753 301.617,389.171 301.915,389.434 302.280 C 389.696 302.644,390.040 302.862,390.198 302.765 C 390.356 302.667,390.443 302.791,390.391 303.039 C 390.340 303.286,390.501 303.447,390.749 303.396 C 390.997 303.344,391.106 303.454,390.991 303.640 C 390.876 303.826,391.094 304.173,391.476 304.411 C 391.858 304.650,392.170 305.080,392.170 305.368 C 392.170 305.657,392.477 306.113,392.851 306.383 C 393.226 306.653,393.532 307.146,393.532 307.479 C 393.532 307.813,393.678 308.085,393.857 308.085 C 394.036 308.085,394.283 308.621,394.405 309.277 C 394.528 309.932,394.765 310.468,394.932 310.468 C 395.098 310.468,395.234 311.004,395.234 311.660 C 395.234 312.315,395.387 312.851,395.574 312.851 C 395.783 312.851,395.915 314.496,395.915 317.106 C 395.915 319.716,395.783 321.362,395.574 321.362 C 395.387 321.362,395.234 321.736,395.234 322.193 C 395.234 322.650,395.101 323.106,394.938 323.206 C 394.776 323.307,394.544 324.005,394.424 324.758 C 394.303 325.511,394.079 326.128,393.926 326.128 C 393.772 326.128,393.431 326.549,393.166 327.064 C 392.902 327.579,392.416 328.248,392.087 328.551 C 391.758 328.853,391.489 329.437,391.489 329.847 C 391.489 330.258,391.348 330.506,391.176 330.400 C 391.004 330.293,390.561 330.591,390.191 331.061 C 389.821 331.530,389.334 331.915,389.109 331.915 C 388.883 331.915,388.269 332.374,387.745 332.936 C 387.220 333.498,386.546 333.957,386.246 333.957 C 385.947 333.957,385.702 334.104,385.702 334.282 C 385.702 334.461,385.177 334.706,384.534 334.827 C 383.892 334.947,383.288 335.248,383.193 335.496 C 383.092 335.762,382.732 335.872,382.319 335.764 C 381.919 335.659,381.617 335.744,381.617 335.960 C 381.617 336.190,380.941 336.340,379.915 336.340 C 378.979 336.340,378.213 336.494,378.213 336.681 C 378.213 336.868,377.370 337.021,376.340 337.021 C 375.271 337.021,374.468 336.869,374.468 336.667 C 374.468 336.465,373.857 336.349,373.045 336.397 C 372.170 336.448,371.569 336.323,371.484 336.070 C 371.409 335.844,370.901 335.660,370.355 335.660 C 369.809 335.660,369.362 335.513,369.362 335.335 C 369.362 335.156,368.826 334.909,368.170 334.786 C 367.515 334.663,366.979 334.426,366.979 334.260 C 366.979 334.094,366.734 333.957,366.434 333.957 C 366.135 333.957,365.446 333.482,364.902 332.900 C 364.329 332.286,363.708 331.922,363.421 332.031 C 363.074 332.165,362.991 332.057,363.140 331.668 C 363.297 331.260,363.208 331.171,362.800 331.328 C 362.423 331.472,362.304 331.393,362.425 331.077 C 362.528 330.809,362.306 330.521,361.897 330.391 C 361.509 330.268,361.191 329.905,361.191 329.584 C 361.191 329.264,360.898 328.790,360.540 328.531 C 360.181 328.273,359.613 327.397,359.278 326.584 C 358.943 325.771,358.547 325.106,358.398 325.106 C 358.249 325.106,358.128 324.732,358.128 324.275 C 358.128 323.818,357.974 323.350,357.787 323.234 C 357.600 323.118,357.447 322.650,357.447 322.193 C 357.447 321.736,357.294 321.362,357.106 321.362 C 356.897 321.362,356.766 319.660,356.766 316.936 C 356.766 314.213,356.897 312.511,357.106 312.511 C 357.294 312.511,357.447 312.051,357.447 311.489 C 357.447 310.928,357.600 310.468,357.787 310.468 C 357.974 310.468,358.128 310.162,358.128 309.787 C 358.128 309.413,358.249 309.106,358.398 309.106 C 358.547 309.106,358.953 308.417,359.301 307.574 C 359.648 306.732,360.062 306.043,360.222 306.043 C 360.381 306.043,360.511 305.736,360.511 305.362 C 360.511 304.987,360.660 304.681,360.842 304.681 C 361.274 304.681,364.255 301.699,364.255 301.268 C 364.255 301.085,364.562 300.936,364.936 300.936 C 365.311 300.936,365.617 300.806,365.617 300.647 C 365.617 300.488,366.306 300.074,367.149 299.726 C 367.991 299.379,368.681 298.973,368.681 298.824 C 368.681 298.675,369.140 298.553,369.702 298.553 C 370.264 298.553,370.723 298.400,370.723 298.213 C 370.723 298.026,371.260 297.872,371.915 297.872 C 372.570 297.872,373.106 297.719,373.106 297.532 C 373.106 297.329,374.411 297.191,376.340 297.191 C 378.270 297.191,379.574 297.329,379.574 297.532 M367.660 317.083 L 367.660 329.872 369.872 329.872 L 372.085 329.872 372.085 324.596 L 372.085 319.319 373.957 319.319 C 375.275 319.319,375.830 319.451,375.830 319.766 C 375.830 320.011,376.117 320.521,376.469 320.898 C 376.821 321.276,377.214 321.917,377.343 322.324 C 377.472 322.731,377.721 323.064,377.895 323.064 C 378.070 323.064,378.213 323.370,378.213 323.745 C 378.213 324.119,378.366 324.426,378.553 324.426 C 378.740 324.426,378.894 324.622,378.894 324.861 C 378.894 325.101,379.200 325.517,379.574 325.787 C 379.949 326.057,380.255 326.494,380.255 326.759 C 380.255 327.023,380.598 327.537,381.017 327.900 C 381.436 328.263,381.780 328.817,381.783 329.131 C 381.787 329.611,382.206 329.710,384.426 329.754 C 386.999 329.805,387.064 329.787,387.064 328.988 C 387.064 328.538,386.949 328.168,386.809 328.166 C 386.668 328.164,386.263 327.556,385.908 326.816 C 385.553 326.075,385.017 325.196,384.717 324.862 C 384.416 324.528,383.953 323.834,383.687 323.319 C 383.421 322.804,383.077 322.383,382.921 322.383 C 382.766 322.383,382.638 322.187,382.638 321.947 C 382.638 321.708,382.332 321.291,381.957 321.021 C 381.583 320.751,381.277 320.289,381.277 319.993 C 381.277 319.697,381.093 319.271,380.868 319.047 C 380.550 318.729,380.744 318.638,381.738 318.638 C 382.811 318.638,383.289 318.371,384.700 316.982 L 386.383 315.325 386.383 311.705 C 386.383 309.519,386.248 308.085,386.043 308.085 C 385.855 308.085,385.702 307.805,385.702 307.464 C 385.702 306.797,384.370 305.362,383.751 305.362 C 383.545 305.362,383.312 305.170,383.234 304.936 C 383.128 304.617,381.168 304.484,375.376 304.402 L 367.660 304.294 367.660 317.083 M380.788 309.268 C 383.791 312.270,381.401 314.894,375.664 314.894 L 372.085 314.894 372.085 311.442 L 372.085 307.990 375.969 308.162 C 379.644 308.324,379.904 308.383,380.788 309.268 " stroke="none" fill="#2c64b4" fill-rule="evenodd"></path><path id="path1" d="" stroke="none" fill="#2c6cb4" fill-rule="evenodd"></path><path id="path2" d="" stroke="none" fill="#3064b4" fill-rule="evenodd"></path><path id="path3" d="" stroke="none" fill="#3064b4" fill-rule="evenodd"></path><path id="path4" d="" stroke="none" fill="#3064b4" fill-rule="evenodd"></path></g></svg>